<svg
  xmlns:dc="http://purl.org/dc/elements/1.1/"
  xmlns:cc="http://creativecommons.org/ns#"
  xmlns:rdf="http://www.w3.org/1999/02/22-rdf-syntax-ns#"
  xmlns:svg="http://www.w3.org/2000/svg"
  xmlns="http://www.w3.org/2000/svg"
  xmlns:sodipodi="http://sodipodi.sourceforge.net/DTD/sodipodi-0.dtd"
  xmlns:inkscape="http://www.inkscape.org/namespaces/inkscape"
  version="1.1"
  x="0px"
  y="0px"
  viewBox="0 0 100 100"
>
  <g transform="translate(0,-952.36218)">
    <path
      style="text-indent:0;text-transform:none;direction:ltr;block-progression:tb;baseline-shift:baseline;color:#000000;enable-background:accumulate;"
      d="m 6,969.36213 0,1 0,64.00007 0,1 0.9999999,0 86.0000001,0 1,0 0,-1 0,-64.00007 0,-1 -1,0 -86.0000001,0 z m 1.9999999,2 84.0000001,0 0,53.40627 -19.25,-21.0937 c -0.22444,-0.2463 -0.57769,-0.3681 -0.90625,-0.3125 -0.21486,0.039 -0.41587,0.1507 -0.5625,0.3125 l -15.0625,16 L 34.75,995.67473 c -0.22444,-0.24633 -0.57769,-0.36814 -0.90625,-0.3125 -0.21486,0.039 -0.41587,0.15067 -0.5625,0.3125 L 7.9999999,1022.8309 z M 57,983.36223 c -3.85415,0 -7,3.14585 -7,7 0,3.85415 3.14585,7 7,7 3.85415,0 7,-3.14585 7,-7 0,-3.85415 -3.14585,-7 -7,-7 z m -0.5,2 c 0.16865,-0.017 0.32667,0 0.5,0 2.77327,0 5,2.22673 5,5 0,2.77327 -2.22673,5 -5,5 -2.77327,0 -5,-2.22673 -5,-5 0,-2.59994 1.97026,-4.74521 4.5,-5 z m -22.53125,12.46875 31.8125,35.53122 -57.7812501,0 0,-7.6563 z M 72,1005.831 l 20,21.9062 0,5.625 -23.53125,0 -10.90625,-12.1875 z"
      fill="#000000"
      fill-opacity="1"
      stroke="none"
      marker="none"
      visibility="visible"
      display="inline"
      overflow="visible"
    />
  </g>
</svg>
